<?xml version="1.0" encoding="utf-8"?>
<!-- Generator: Adobe Illustrator 23.0.1, SVG Export Plug-In . SVG Version: 6.00 Build 0)  -->
<svg version="1.1" id="レイヤー_1" xmlns="http://www.w3.org/2000/svg" xmlns:xlink="http://www.w3.org/1999/xlink" x="0px"
	 y="0px" viewBox="0 0 200 240" style="enable-background:new 0 0 200 240;" xml:space="preserve">
<style type="text/css">
	.st0{fill:#FFFFFF;}
	.st1{fill:#666666;}
	.st2{fill:#3E3A39;}
</style>
<g>
	<g>
		<rect x="0.5" y="0.5" class="st0" width="199" height="239"/>
		<path class="st1" d="M199,1v238H1V1H199 M200,0H0v240h200V0L200,0z"/>
	</g>
</g>
<g>
	<g>
		<path class="st2" d="M28.4,125.4c-0.2,2.2-0.9,3.9-2.3,5.1s-3.2,1.8-5.7,1.8c-2.4,0-4.4-0.8-5.8-2.3s-2.1-3.5-2.1-6v-4
			c0-2.5,0.7-4.5,2.1-6s3.3-2.3,5.7-2.3c2.5,0,4.4,0.6,5.7,1.8c1.3,1.2,2.1,2.9,2.3,5.2h-4c-0.1-1.3-0.5-2.3-1.1-2.9s-1.6-1-2.9-1
			c-1.2,0-2.2,0.5-2.9,1.4c-0.7,1-1,2.2-1,3.8v4c0,1.6,0.3,2.9,1,3.8c0.7,1,1.6,1.4,2.9,1.4s2.2-0.3,2.8-0.9c0.6-0.6,1-1.6,1.1-2.9
			H28.4z"/>
		<path class="st2" d="M38.7,112l5.1,14.9l0,0L49,112h5.3v20h-4v-6l0.4-9l0,0l-5.4,15h-2.7l-5.4-14.9l0,0l0.4,8.9v6h-4v-20H38.7z"/>
		<path class="st2" d="M75.6,125.4c-0.2,2.2-0.9,3.9-2.3,5.1c-1.3,1.2-3.2,1.8-5.7,1.8c-2.4,0-4.4-0.8-5.8-2.3
			c-1.4-1.5-2.1-3.5-2.1-6v-4c0-2.5,0.7-4.5,2.1-6c1.4-1.5,3.3-2.3,5.7-2.3c2.5,0,4.4,0.6,5.7,1.8c1.3,1.2,2.1,2.9,2.3,5.2h-4
			c-0.1-1.3-0.5-2.3-1.1-2.9s-1.6-1-2.9-1c-1.2,0-2.2,0.5-2.9,1.4c-0.7,1-1,2.2-1,3.8v4c0,1.6,0.3,2.9,1,3.8c0.7,1,1.6,1.4,2.9,1.4
			s2.2-0.3,2.8-0.9c0.6-0.6,1-1.6,1.1-2.9H75.6z"/>
		<path class="st2" d="M104.2,129.5c-0.6,0.8-1.5,1.4-2.8,2c-1.2,0.6-2.8,0.9-4.8,0.9c-2.5,0-4.5-0.8-6-2.3s-2.3-3.5-2.3-6v-4.2
			c0-2.5,0.7-4.5,2.2-6s3.4-2.3,5.8-2.3c2.5,0,4.4,0.6,5.6,1.7s2,2.8,2.3,4.8h-3.9c-0.2-1.1-0.6-2-1.2-2.6s-1.5-0.9-2.7-0.9
			c-1.3,0-2.3,0.5-3,1.4s-1.1,2.2-1.1,3.7v4.2c0,1.6,0.4,2.8,1.2,3.7c0.8,0.9,1.8,1.4,3.2,1.4c1,0,1.7-0.1,2.3-0.3
			c0.6-0.2,1-0.4,1.3-0.7v-3.6h-3.6v-2.8h7.6L104.2,129.5L104.2,129.5z"/>
		<path class="st2" d="M114,124v8h-4v-20h7.9c2.3,0,4.1,0.5,5.2,1.5c1.2,1,1.8,2.4,1.8,4.4c0,1.1-0.3,2-0.9,2.8
			c-0.6,0.7-1.4,1.3-2.6,1.7l0,0c1.2,0.4,2,0.9,2.5,1.7s0.7,1.8,0.7,3.1v1.5c0,0.6,0.1,1.1,0.2,1.7c0.1,0.6,0.4,1,0.8,1.3v0.4h-4.1
			c-0.4-0.3-0.6-0.8-0.7-1.5s-0.2-1.3-0.2-1.9v-1.4c0-1-0.3-1.8-0.8-2.4c-0.5-0.5-1.3-0.8-2.3-0.8L114,124L114,124z M114,120.9h3.5
			c1.1,0,2-0.2,2.5-0.7s0.8-1.2,0.8-2.1s-0.3-1.7-0.8-2.2s-1.3-0.8-2.4-0.8H114V120.9z"/>
		<path class="st2" d="M146.9,123.8c0,2.5-0.8,4.5-2.3,6.1s-3.6,2.4-6.1,2.4s-4.5-0.8-6.1-2.4c-1.5-1.6-2.3-3.6-2.3-6.1v-3.6
			c0-2.5,0.8-4.5,2.3-6.1s3.5-2.4,6-2.4s4.6,0.8,6.1,2.4s2.3,3.6,2.3,6.1v3.6H146.9z M142.9,120.2c0-1.6-0.4-2.9-1.2-3.9
			s-1.9-1.5-3.2-1.5c-1.4,0-2.5,0.5-3.2,1.5s-1.1,2.3-1.1,3.9v3.6c0,1.6,0.4,2.9,1.1,3.9c0.7,1,1.8,1.5,3.2,1.5s2.5-0.5,3.2-1.5
			c0.8-1,1.1-2.3,1.1-3.9L142.9,120.2L142.9,120.2z"/>
		<path class="st2" d="M168.3,112v13.3c0,2.3-0.7,4-2.2,5.2s-3.4,1.8-5.9,1.8c-2.4,0-4.4-0.6-5.8-1.8c-1.5-1.2-2.2-2.9-2.2-5.2V112
			h4v13.3c0,1.3,0.3,2.3,1,3c0.7,0.6,1.7,1,2.9,1c1.3,0,2.3-0.3,3-1c0.7-0.6,1.1-1.6,1.1-3V112H168.3z"/>
		<path class="st2" d="M178.1,124.8v7.3h-4V112h8c2.4,0,4.2,0.6,5.5,1.7c1.3,1.2,1.9,2.7,1.9,4.7s-0.7,3.5-1.9,4.7
			c-1.3,1.1-3.1,1.7-5.5,1.7L178.1,124.8L178.1,124.8z M178.1,121.7h4c1.1,0,2-0.3,2.6-0.9s0.8-1.4,0.8-2.3c0-1-0.3-1.8-0.8-2.4
			c-0.6-0.6-1.4-0.9-2.6-0.9h-4V121.7z"/>
	</g>
</g>
</svg>
